<?xml version="1.0" encoding="UTF-8" standalone="no" ?>
<!DOCTYPE svg PUBLIC "-//W3C//DTD SVG 1.1//EN" "http://www.w3.org/Graphics/SVG/1.1/DTD/svg11.dtd">
<svg xmlns="http://www.w3.org/2000/svg" xmlns:xlink="http://www.w3.org/1999/xlink" version="1.1" width="107.21000000000001" height="101.0611" xml:space="preserve">
<desc>Created with Fabric.js 1.6.0-rc.1</desc>
<defs></defs>
<g style="stroke: none; stroke-width: 1; stroke-dasharray: none; stroke-linecap: butt; stroke-linejoin: miter; stroke-miterlimit: 10; fill: none; fill-rule: nonzero; opacity: 1;" transform="translate(10 10) scale(0.17 0.17)" >
  <rect x="318.15" y="61.24" rx="0" ry="0" width="72.5" height="408.02" style="stroke: none; stroke-width: 1; stroke-dasharray: none; stroke-linecap: butt; stroke-linejoin: miter; stroke-miterlimit: 10; fill: #1100f3; fill-rule: nonzero; opacity: 1;" transform=" matrix(0.893 -0.4501 0.4501 0.893 -81.4601 187.9007) "/>
  <rect x="164.41" y="80.77" rx="0" ry="0" width="58.2" height="386.7" style="stroke: none; stroke-width: 1; stroke-dasharray: none; stroke-linecap: butt; stroke-linejoin: miter; stroke-miterlimit: 10; fill: #2bff02; fill-rule: nonzero; opacity: 1;" transform=" matrix(1 0 0 1 0 0) "/>
  <polygon points="222.61,211.48 222.61,189.22 189.22,189.22 189.22,80.78 164.41,80.78 164.41,467.48 222.61,467.48 222.61,445.22 189.22,445.22 189.22,211.48 " style="stroke: none; stroke-width: 1; stroke-dasharray: none; stroke-linecap: butt; stroke-linejoin: miter; stroke-miterlimit: 10; fill: #2bff05; fill-rule: nonzero; opacity: 1;" transform="  matrix(1 0 0 1 0 0) "/>
  <rect x="55.65" y="44.52" rx="0" ry="0" width="108.75" height="422.96" style="stroke: none; stroke-width: 1; stroke-dasharray: none; stroke-linecap: butt; stroke-linejoin: miter; stroke-miterlimit: 10; fill: #b800f1; fill-rule: nonzero; opacity: 1;" transform=" matrix(1 0 0 1 0 0) "/>
  <rect x="55.65" y="104.95" rx="0" ry="0" width="108.75" height="96.68" style="stroke: none; stroke-width: 1; stroke-dasharray: none; stroke-linecap: butt; stroke-linejoin: miter; stroke-miterlimit: 10; fill: #DCE5C7; fill-rule: nonzero; opacity: 1;" transform=" matrix(1 0 0 1 0 0) "/>
  <rect x="55.65" y="200.35" rx="0" ry="0" width="108.75" height="22.26" style="stroke: none; stroke-width: 1; stroke-dasharray: none; stroke-linecap: butt; stroke-linejoin: miter; stroke-miterlimit: 10; fill: #48997E; fill-rule: nonzero; opacity: 1;" transform=" matrix(1 0 0 1 0 0) "/>
  <rect x="164.41" y="141.2" rx="0" ry="0" width="58.2" height="48.34" style="stroke: none; stroke-width: 1; stroke-dasharray: none; stroke-linecap: butt; stroke-linejoin: miter; stroke-miterlimit: 10; fill: #000000; fill-rule: nonzero; opacity: 1;" transform=" matrix(1 0 0 1 0 0) "/>
  <polygon points="308.44,254.62 368.75,213.18 363.17,202.11 298.42,234.75 " style="stroke: none; stroke-width: 1; stroke-dasharray: none; stroke-linecap: butt; stroke-linejoin: miter; stroke-miterlimit: 10; fill: #968D8B; fill-rule: nonzero; opacity: 1;" transform="  matrix(1 0 0 1 0 0) "/>
  <rect x="271.23" y="120.39" rx="0" ry="0" width="72.5" height="103.57" style="stroke: none; stroke-width: 1; stroke-dasharray: none; stroke-linecap: butt; stroke-linejoin: miter; stroke-miterlimit: 10; fill: #FDD8A8; fill-rule: nonzero; opacity: 1;" transform=" matrix(0.893 -0.4501 0.4501 0.893 -44.5884 156.8191) "/>
  <rect x="164.41" y="141.2" rx="0" ry="0" width="24.8" height="48.34" style="stroke: none; stroke-width: 1; stroke-dasharray: none; stroke-linecap: butt; stroke-linejoin: miter; stroke-miterlimit: 10; fill: #DDDDDD; fill-rule: nonzero; opacity: 1;" transform=" matrix(1 0 0 1 0 0) "/>
  <rect x="164.41" y="189.22" rx="0" ry="0" width="58.2" height="22.26" style="stroke: none; stroke-width: 1; stroke-dasharray: none; stroke-linecap: butt; stroke-linejoin: miter; stroke-miterlimit: 10; fill: #2bff05; fill-rule: nonzero; opacity: 1;" transform=" matrix(1 0 0 1 0 0) "/>
  <rect x="55.65" y="445.22" rx="0" ry="0" width="108.75" height="22.26" style="stroke: none; stroke-width: 1; stroke-dasharray: none; stroke-linecap: butt; stroke-linejoin: miter; stroke-miterlimit: 10; fill: #48997E; fill-rule: nonzero; opacity: 1;" transform=" matrix(1 0 0 1 0 0) "/>
  <polygon points="397.1,430.5 413.86,463.76 478.61,431.12 " style="stroke: none; stroke-width: 1; stroke-dasharray: none; stroke-linecap: butt; stroke-linejoin: miter; stroke-miterlimit: 10; fill: #968D8B; fill-rule: nonzero; opacity: 1;" transform="  matrix(1 0 0 1 0 0) "/>
  <path d="M 93.003 313.136 H 76.307 v -15.953 h 16.696 V 313.136 z M 93.003 280.487 H 76.307 v -46.748 h 16.696 V 280.487 z" style="stroke: none; stroke-width: 1; stroke-dasharray: none; stroke-linecap: butt; stroke-linejoin: miter; stroke-miterlimit: 10; fill: #000000; fill-rule: nonzero; opacity: 1;" transform=" matrix(1 0 0 1 0 0) " stroke-linecap="round" />
  <path d="M 382.099 315.385 l -7.135 -14.269 l 14.933 -7.466 l 7.135 14.269 L 382.099 315.385 z M 367.498 286.184 l -20.906 -41.813 l 14.933 -7.466 l 20.906 41.813 L 367.498 286.184 z" style="stroke: none; stroke-width: 1; stroke-dasharray: none; stroke-linecap: butt; stroke-linejoin: miter; stroke-miterlimit: 10; fill: #000000; fill-rule: nonzero; opacity: 1;" transform=" matrix(1 0 0 1 0 0) " stroke-linecap="round" />
  <rect x="118.05" y="144.93" rx="0" ry="0" width="16.7" height="16.7" style="stroke: none; stroke-width: 1; stroke-dasharray: none; stroke-linecap: butt; stroke-linejoin: miter; stroke-miterlimit: 10; fill: #000000; fill-rule: nonzero; opacity: 1;" transform=" matrix(1 0 0 1 0 0) "/>
  <rect x="84.66" y="144.93" rx="0" ry="0" width="16.7" height="16.7" style="stroke: none; stroke-width: 1; stroke-dasharray: none; stroke-linecap: butt; stroke-linejoin: miter; stroke-miterlimit: 10; fill: #000000; fill-rule: nonzero; opacity: 1;" transform=" matrix(1 0 0 1 0 0) "/>
  <path d="M 374.377 205.805 L 374.377 205.805 L 320.24 98.412 l 0 0 l -21.596 -42.841 l -67.688 34.12 V 72.427 H 172.76 V 36.174 H 47.304 v 60.423 v 113.371 V 459.13 H 33.391 v 16.696 h 13.913 h 108.76 h 16.696 h 58.197 h 247.652 V 459.13 h -37.015 l 48.227 -24.311 L 374.377 205.805 z M 467.397 427.426 l -49.837 25.122 L 309.632 238.444 l 49.837 -25.122 L 467.397 427.426 z M 263.01 145.959 l 49.837 -25.122 l 39.106 77.576 l -49.837 25.123 l -7.878 -15.628 L 263.01 145.959 z M 291.251 77.994 l 14.081 27.933 l -49.838 25.122 l -14.081 -27.933 L 291.251 77.994 z M 214.261 89.122 v 43.727 H 172.76 V 96.597 v -7.473 h 41.501 V 89.122 z M 214.261 181.188 H 172.76 v -31.643 h 41.501 V 181.188 z M 156.064 193.272 H 64 v -79.98 h 92.064 v 19.557 L 156.064 193.272 L 156.064 193.272 z M 64 52.87 h 92.064 v 19.557 v 24.169 H 64 V 52.87 z M 64 459.13 V 209.968 h 92.064 V 459.13 H 64 z M 172.76 459.13 V 209.968 v -12.084 h 41.501 V 459.13 H 172.76 z M 230.957 459.13 V 197.884 V 132.85 v -13.388 l 9.63 19.103 l 0 0 l 54.136 107.393 l 0 0 L 402.18 459.13 H 230.957 z" style="stroke: none; stroke-width: 1; stroke-dasharray: none; stroke-linecap: butt; stroke-linejoin: miter; stroke-miterlimit: 10; fill: #000000; fill-rule: nonzero; opacity: 1;" transform=" matrix(1 0 0 1 0 0) " stroke-linecap="round" />
  <rect x="282.41" y="165.37" rx="0" ry="0" width="54.04" height="16.7" style="stroke: none; stroke-width: 1; stroke-dasharray: none; stroke-linecap: butt; stroke-linejoin: miter; stroke-miterlimit: 10; fill: #000000; fill-rule: nonzero; opacity: 1;" transform=" matrix(-0.4472 -0.8944 0.8944 -0.4472 292.4337 528.1691) "/>
  <rect x="0" y="459.13" rx="0" ry="0" width="16.7" height="16.7" style="stroke: none; stroke-width: 1; stroke-dasharray: none; stroke-linecap: butt; stroke-linejoin: miter; stroke-miterlimit: 10; fill: #000000; fill-rule: nonzero; opacity: 1;" transform=" matrix(1 0 0 1 0 0) "/>
  <rect x="495.3" y="459.13" rx="0" ry="0" width="16.7" height="16.7" style="stroke: none; stroke-width: 1; stroke-dasharray: none; stroke-linecap: butt; stroke-linejoin: miter; stroke-miterlimit: 10; fill: #000000; fill-rule: nonzero; opacity: 1;" transform=" matrix(1 0 0 1 0 0) "/>
</g>
</svg>